<mxfile host="65bd71144e">
    <diagram id="udnwHgA9IgvKCQdY56eb" name="第 1 页">
        <mxGraphModel dx="1947" dy="782" grid="1" gridSize="10" guides="1" tooltips="1" connect="1" arrows="1" fold="1" page="1" pageScale="1" pageWidth="827" pageHeight="1169" math="0" shadow="0">
            <root>
                <mxCell id="0"/>
                <mxCell id="1" parent="0"/>
                <mxCell id="6" value="" style="edgeStyle=none;html=1;" edge="1" parent="1" source="2" target="5">
                    <mxGeometry relative="1" as="geometry"/>
                </mxCell>
                <mxCell id="2" value="打开文档" style="rounded=1;whiteSpace=wrap;html=1;fillColor=#4D9900;" vertex="1" parent="1">
                    <mxGeometry x="100" y="160" width="120" height="60" as="geometry"/>
                </mxCell>
                <mxCell id="8" value="" style="edgeStyle=none;html=1;" edge="1" parent="1" source="5" target="7">
                    <mxGeometry relative="1" as="geometry"/>
                </mxCell>
                <mxCell id="10" value="" style="edgeStyle=none;html=1;" edge="1" parent="1" source="5" target="9">
                    <mxGeometry relative="1" as="geometry"/>
                </mxCell>
                <mxCell id="5" value="判断文档类型" style="rhombus;whiteSpace=wrap;html=1;rounded=1;fillColor=#FF9933;" vertex="1" parent="1">
                    <mxGeometry x="110" y="280" width="100" height="100" as="geometry"/>
                </mxCell>
                <mxCell id="7" value="只读文档" style="whiteSpace=wrap;html=1;rounded=1;fillColor=#006633;" vertex="1" parent="1">
                    <mxGeometry x="-60" y="300" width="120" height="60" as="geometry"/>
                </mxCell>
                <mxCell id="12" value="" style="edgeStyle=none;html=1;" edge="1" parent="1" source="9" target="11">
                    <mxGeometry relative="1" as="geometry"/>
                </mxCell>
                <mxCell id="21" value="" style="edgeStyle=none;html=1;" edge="1" parent="1" source="9" target="20">
                    <mxGeometry relative="1" as="geometry"/>
                </mxCell>
                <mxCell id="9" value="可编辑文档" style="whiteSpace=wrap;html=1;rounded=1;fillColor=#FF9999;" vertex="1" parent="1">
                    <mxGeometry x="100" y="460" width="120" height="60" as="geometry"/>
                </mxCell>
                <mxCell id="14" value="" style="edgeStyle=none;html=1;" edge="1" parent="1" source="11" target="13">
                    <mxGeometry relative="1" as="geometry">
                        <Array as="points">
                            <mxPoint x="360" y="630"/>
                        </Array>
                    </mxGeometry>
                </mxCell>
                <mxCell id="11" value="保存文档" style="whiteSpace=wrap;html=1;rounded=1;fillColor=#FF00FF;" vertex="1" parent="1">
                    <mxGeometry x="100" y="600" width="120" height="60" as="geometry"/>
                </mxCell>
                <mxCell id="15" style="edgeStyle=none;html=1;exitX=0.5;exitY=0;exitDx=0;exitDy=0;entryX=1;entryY=0.5;entryDx=0;entryDy=0;" edge="1" parent="1" source="13" target="2">
                    <mxGeometry relative="1" as="geometry">
                        <Array as="points">
                            <mxPoint x="360" y="190"/>
                        </Array>
                    </mxGeometry>
                </mxCell>
                <mxCell id="13" value="文档管理服务" style="whiteSpace=wrap;html=1;rounded=1;fillColor=#6666FF;" vertex="1" parent="1">
                    <mxGeometry x="300" y="370" width="120" height="60" as="geometry"/>
                </mxCell>
                <mxCell id="18" style="edgeStyle=none;html=1;exitX=0.5;exitY=0.5;exitDx=0;exitDy=0;exitPerimeter=0;entryX=0;entryY=0.5;entryDx=0;entryDy=0;" edge="1" parent="1" source="16" target="2">
                    <mxGeometry relative="1" as="geometry"/>
                </mxCell>
                <mxCell id="16" value="user" style="shape=umlActor;verticalLabelPosition=bottom;verticalAlign=top;html=1;outlineConnect=0;fillColor=#FFFF33;" vertex="1" parent="1">
                    <mxGeometry x="-30" y="160" width="30" height="60" as="geometry"/>
                </mxCell>
                <mxCell id="22" style="edgeStyle=none;html=1;exitX=0.5;exitY=1;exitDx=0;exitDy=0;entryX=0;entryY=0.5;entryDx=0;entryDy=0;" edge="1" parent="1" source="20" target="11">
                    <mxGeometry relative="1" as="geometry">
                        <Array as="points">
                            <mxPoint x="-40" y="630"/>
                        </Array>
                    </mxGeometry>
                </mxCell>
                <mxCell id="20" value="协同编辑" style="rhombus;whiteSpace=wrap;html=1;fillColor=#006666;rounded=1;" vertex="1" parent="1">
                    <mxGeometry x="-80" y="450" width="80" height="80" as="geometry"/>
                </mxCell>
                <mxCell id="24" style="edgeStyle=none;html=1;exitX=0.875;exitY=0.5;exitDx=0;exitDy=0;exitPerimeter=0;entryX=0;entryY=0.5;entryDx=0;entryDy=0;" edge="1" parent="1" source="23" target="20">
                    <mxGeometry relative="1" as="geometry"/>
                </mxCell>
                <mxCell id="23" value="人员数据同步，&lt;br&gt;权限处理" style="ellipse;shape=cloud;whiteSpace=wrap;html=1;fillColor=#006666;" vertex="1" parent="1">
                    <mxGeometry x="-220" y="450" width="120" height="80" as="geometry"/>
                </mxCell>
                <mxCell id="25" value="callbackurl监听&lt;br&gt;文档状态" style="ellipse;shape=cloud;whiteSpace=wrap;html=1;fillColor=#994C00;" vertex="1" parent="1">
                    <mxGeometry x="160" y="520" width="120" height="80" as="geometry"/>
                </mxCell>
                <mxCell id="26" value="通过返回的文档地&lt;br&gt;址将文件保存至文&lt;br&gt;档服务" style="ellipse;shape=cloud;whiteSpace=wrap;html=1;fillColor=#003366;" vertex="1" parent="1">
                    <mxGeometry x="370" y="520" width="130" height="110" as="geometry"/>
                </mxCell>
            </root>
        </mxGraphModel>
    </diagram>
</mxfile>